# xmcd
#
# Track frame offsets:
# 150
# 7774
# 27069
# 53274
# 71871
# 76054
# 95521
# 99166
# 120066
# 139275
# 157463
# 175505
# 194599
# 211965
# 233523
# 250517
# 273081
# 276664
# 299615
# 323626
#
# Disc length: 4701 seconds
#
# Revision: 65536
# Processed by: cddbd v1.5.1PL2 Copyright (c) Steve Scherf et al.
# Submitted via: CoinsHifi v1.7i contact@coinshifi.com
#
DISCID=07125b14
DTITLE=Christina Aguilera - Stripped
DYEAR=2002
DGENRE=blues
TTITLE0=Stripped Intro
TTITLE1=Can't Hold Us Down (feat. Lil' Kim)
TTITLE2=Walk Away
TTITLE3=Fighter
TTITLE4=Primer Amor (interlude)
TTITLE5=Infatuation
TTITLE6=Loves Embrace (interlude)
TTITLE7=Loving Me 4 Me
TTITLE8=Impossible
TTITLE9=Underappreciated
TTITLE10=Beautiful
TTITLE11=Make Over
TTITLE12=Cruz
TTITLE13=Soar
TTITLE14=Get Mine, Get Yours
TTITLE15=Dirrty (feat. Redman)
TTITLE16=Stripped Pt. 2
TTITLE17=The Voice Within
TTITLE18=I'm Ok
TTITLE19=Keep On Singin' My Song
EXTD=
EXTT0=YEAR:0
EXTT1=YEAR:0
EXTT2=YEAR:0
EXTT3=YEAR:0
EXTT4=YEAR:0
EXTT5=YEAR:0
EXTT6=YEAR:0
EXTT7=YEAR:0
EXTT8=YEAR:0
EXTT9=YEAR:0
EXTT10=YEAR:0
EXTT11=YEAR:0
EXTT12=YEAR:0
EXTT13=YEAR:0
EXTT14=YEAR:0
EXTT15=YEAR:0
EXTT16=YEAR:0
EXTT17=YEAR:0
EXTT18=YEAR:0
EXTT19=YEAR:0
PLAYORDER=
